<?xml version="1.0" standalone="no"?>
<!DOCTYPE svg PUBLIC "-//W3C//DTD SVG 20010904//EN"
 "http://www.w3.org/TR/2001/REC-SVG-20010904/DTD/svg10.dtd">
<svg version="1.0" xmlns="http://www.w3.org/2000/svg"
 width="1072.000000pt" height="788.000000pt" viewBox="0 0 1072.000000 788.000000"
 preserveAspectRatio="xMidYMid meet">

<g transform="translate(0.000000,788.000000) scale(0.100000,-0.100000)"
fill="#000000" stroke="none">
<path d="M740 7790 c0 -83 -2 -90 -22 -101 -83 -42 -438 -253 -438 -259 0 -4
24 -48 53 -97 28 -49 63 -109 75 -133 l24 -45 -61 -104 c-33 -57 -64 -108 -69
-113 -6 -6 -60 20 -140 66 -162 95 -162 94 -162 65 0 -20 24 -38 154 -111 85
-49 156 -88 159 -88 2 0 39 61 82 135 l77 135 293 0 293 0 67 -115 c37 -63 64
-118 62 -122 -3 -4 -104 -64 -226 -133 l-220 -125 -1 -262 0 -263 -147 0 -148
0 -69 -120 c-38 -66 -73 -123 -77 -126 -5 -2 -71 31 -148 76 -76 44 -142 80
-146 80 -3 0 -5 -10 -3 -22 2 -17 33 -40 126 -94 67 -39 128 -76 134 -82 7 -7
-10 -46 -62 -136 l-71 -126 71 -125 c39 -69 69 -129 66 -134 -3 -4 -64 -42
-136 -82 -105 -60 -130 -78 -130 -96 0 -13 3 -23 6 -23 14 0 324 183 324 190
0 5 -34 67 -76 139 l-75 130 65 113 c36 62 71 113 79 112 7 -1 104 -54 215
-118 l202 -118 0 -269 c0 -208 3 -269 13 -269 6 -1 78 -1 158 0 l146 1 147
-257 c81 -141 146 -259 144 -263 -15 -32 -122 -212 -129 -217 -10 -6 -390 208
-415 233 -8 8 -14 11 -14 7 0 -3 -6 -1 -14 5 -10 9 -16 9 -21 1 -5 -8 -11 -8
-21 1 -12 9 -13 9 -9 -3 4 -11 -48 -46 -201 -133 -190 -109 -208 -117 -220
-101 -7 10 -41 67 -75 127 l-62 109 -84 0 c-82 0 -83 0 -83 -25 0 -24 2 -25
73 -25 l72 -1 137 -237 c75 -130 140 -244 143 -253 8 -22 -125 -251 -139 -240
-26 20 -278 162 -282 158 -2 -2 -3 -211 -2 -464 l3 -460 160 92 c88 51 160 99
160 106 0 8 -33 71 -73 141 l-73 128 126 217 c70 120 138 235 151 255 l24 38
130 0 130 0 0 -262 0 -263 212 -120 c116 -66 217 -125 226 -131 13 -9 4 -30
-60 -140 -42 -71 -72 -133 -68 -139 4 -5 38 -62 75 -125 l66 -115 -22 -15
c-55 -38 -393 -230 -404 -230 -11 0 -129 66 -373 209 -40 23 -70 46 -67 51 3
4 -4 6 -15 3 -12 -3 -27 -20 -35 -37 -8 -17 -40 -76 -72 -131 l-58 -100 -72
-3 c-64 -3 -73 -5 -73 -22 0 -17 9 -20 83 -22 l82 -3 71 123 c39 67 73 124 76
127 3 3 99 -49 214 -115 l209 -120 5 -272 5 -273 160 -5 160 -5 62 -105 c34
-58 62 -109 62 -115 0 -5 -54 -41 -122 -80 -67 -38 -158 -91 -202 -117 -44
-26 -87 -48 -97 -48 -17 0 -27 6 -298 162 -102 59 -169 92 -175 87 -5 -5 -41
-65 -80 -132 l-70 -122 -73 -3 c-69 -3 -72 -4 -72 -27 0 -24 2 -25 73 -25 l72
0 63 -110 c34 -61 62 -114 62 -118 0 -4 -61 -42 -135 -85 l-135 -79 0 -454 0
-454 628 0 627 1 65 115 c36 64 69 124 74 134 6 14 -10 49 -65 145 -59 103
-70 128 -58 136 8 5 104 61 215 124 l200 115 227 -130 c124 -71 230 -130 235
-130 6 0 44 61 86 135 l77 135 135 0 134 0 -2 -252 -3 -253 -219 -127 c-120
-70 -224 -132 -229 -137 -8 -8 0 -11 25 -11 28 0 86 29 257 127 l221 128 0
257 0 258 150 0 c83 0 150 4 150 9 0 15 142 251 148 247 162 -92 356 -205 385
-223 l37 -23 0 -270 0 -270 159 0 160 0 68 -120 c67 -119 68 -120 104 -120 29
0 81 26 236 115 110 63 207 115 214 115 8 0 53 -22 99 -49 47 -27 137 -79 199
-115 86 -49 125 -66 152 -66 37 0 38 0 106 120 l68 120 137 0 138 0 0 -120 c0
-114 1 -120 20 -120 20 0 20 5 18 143 l-3 142 -156 3 -155 2 -144 248 c-79
135 -143 251 -143 257 0 11 110 203 127 222 8 9 24 4 66 -21 30 -18 130 -77
223 -130 l167 -97 168 97 c92 53 192 112 222 130 30 18 58 30 62 28 4 -2 39
-61 78 -129 l71 -125 150 0 149 0 0 -237 c0 -131 -4 -243 -8 -250 -4 -6 -75
-51 -157 -98 -83 -48 -186 -108 -230 -134 l-80 -46 36 -3 c32 -3 69 15 258
124 l221 127 0 259 0 258 148 0 148 0 68 118 c37 65 71 124 75 131 5 8 69 -23
217 -109 l209 -120 5 -272 5 -273 160 -3 160 -3 63 -109 c34 -60 62 -114 62
-120 0 -5 14 -10 30 -10 17 0 30 2 30 4 0 2 -34 61 -75 131 l-75 127 67 118
66 117 67 -36 c147 -81 358 -206 355 -211 -22 -36 189 72 451 231 l32 19 73
-130 74 -130 148 0 147 0 0 -120 0 -120 25 0 25 0 0 120 0 120 148 0 147 0 74
130 74 129 41 -23 c75 -43 280 -163 331 -193 l50 -29 3 -127 3 -127 24 0 25 0
0 128 0 127 226 129 c124 71 228 134 230 140 3 7 -20 52 -49 101 -29 50 -64
108 -76 131 l-23 41 144 251 143 252 73 0 c70 0 72 1 72 25 0 23 -3 24 -72 27
l-73 3 -62 105 c-34 58 -62 110 -62 117 -1 6 60 46 134 89 116 66 135 80 135
101 0 14 -4 23 -8 21 -35 -14 -321 -185 -322 -191 0 -4 34 -66 75 -138 66
-113 74 -133 64 -152 -6 -12 -36 -66 -67 -119 l-56 -97 -40 24 c-23 12 -102
58 -176 101 -74 43 -152 87 -172 98 l-38 21 -2 270 -3 270 -159 5 -159 5 -144
249 c-133 230 -143 252 -133 275 32 70 123 212 133 208 7 -3 109 -61 227 -130
192 -112 217 -124 235 -113 112 72 429 246 435 239 5 -4 39 -62 77 -128 l68
-120 83 3 c73 2 82 5 82 22 0 17 -9 19 -71 22 l-71 3 -55 95 c-30 52 -65 113
-78 135 -12 22 -52 91 -89 154 -36 62 -66 115 -66 117 0 6 132 234 135 234 4
0 201 -114 263 -152 l32 -20 0 246 0 246 -83 0 -83 0 -70 -122 c-39 -67 -75
-123 -80 -125 -5 -2 -101 51 -214 116 l-205 119 -3 271 c-2 206 -5 271 -15
271 -6 1 -78 1 -158 0 l-147 -1 -66 117 c-37 64 -64 120 -59 124 12 10 412
240 418 240 3 0 107 -59 231 -131 124 -71 230 -129 235 -127 5 2 42 62 83 133
l73 130 72 3 c62 3 71 5 71 22 0 17 -9 19 -72 22 l-72 3 -41 70 c-23 39 -53
91 -67 116 l-27 46 139 79 c114 64 139 83 140 102 0 12 -2 22 -5 22 -12 0
-325 -184 -325 -191 0 -5 34 -67 76 -140 l76 -131 -65 -111 c-42 -73 -71 -112
-81 -111 -13 1 -286 154 -393 221 -23 13 -23 14 -23 283 0 209 -3 270 -12 270
-7 1 -80 2 -161 3 l-149 2 -95 165 c-52 91 -117 204 -145 252 l-50 87 56 98
c30 54 61 107 69 117 15 21 -20 38 342 -171 l120 -69 50 29 c250 148 398 228
405 221 4 -5 38 -62 75 -126 l67 -118 84 0 84 0 0 775 0 775 -22 -14 c-13 -7
-79 -46 -147 -86 -144 -84 -118 -93 -214 72 l-62 108 -148 0 -147 0 2 251 3
252 167 96 c165 95 166 96 127 99 -34 3 -60 -9 -194 -85 l-154 -88 -1 -263 0
-263 -147 3 -148 3 -71 -125 c-39 -69 -75 -125 -80 -125 -5 0 -100 52 -212
115 -130 74 -200 120 -197 128 3 7 0 10 -5 7 -6 -4 -11 91 -12 261 l-3 267
-150 -2 c-173 -3 -160 -9 -220 102 -30 54 -41 67 -61 67 -13 0 -24 -2 -24 -4
0 -2 22 -42 50 -89 27 -47 50 -90 50 -95 0 -6 -30 -62 -66 -124 -37 -62 -77
-131 -89 -153 -13 -22 -48 -83 -78 -135 l-55 -95 -136 -3 -136 -3 0 263 0 263
-155 88 c-131 75 -161 88 -192 85 -37 -3 -36 -4 87 -75 69 -40 144 -83 168
-97 l42 -26 0 -264 c0 -170 4 -267 10 -271 6 -4 78 -7 161 -8 l151 -2 65 -113
c37 -64 62 -117 57 -122 -5 -4 -49 -32 -99 -60 -49 -29 -141 -81 -204 -118
-110 -63 -115 -65 -140 -51 -348 201 -432 249 -440 249 -5 0 -28 -35 -51 -77
-23 -43 -58 -104 -77 -135 l-34 -58 -292 0 -292 0 -62 108 c-34 59 -63 113
-65 120 -2 7 86 64 217 140 l220 128 3 262 2 262 148 0 148 0 57 98 c31 55 57
102 57 105 0 4 -308 7 -684 7 l-685 0 -3 -91 c-3 -92 3 -129 22 -129 6 0 70
-35 143 -77 72 -42 167 -96 209 -120 l77 -43 -75 -130 -75 -130 57 -98 c31
-53 65 -111 75 -128 l18 -30 -212 -122 c-117 -67 -216 -122 -220 -122 -4 0
-71 37 -149 83 -233 136 -307 177 -315 177 -4 -1 -42 -60 -83 -133 l-75 -132
-137 -3 -138 -3 0 243 c0 134 4 248 8 254 4 6 104 66 222 134 118 68 220 127
227 132 8 7 -6 40 -53 120 -102 174 -97 157 -65 209 15 24 40 66 55 92 l28 48
-28 -3 c-23 -2 -36 -17 -74 -83 l-46 -80 -134 0 -135 0 -3 83 c-3 74 -5 82
-22 82 -19 0 -20 -7 -20 -105 l0 -104 157 -3 158 -3 66 -115 c37 -63 66 -115
66 -116 -14 -10 -411 -236 -420 -240 -8 -3 -114 54 -237 126 -123 72 -228 129
-233 127 -6 -2 -44 -61 -87 -132 l-76 -130 -294 0 -294 0 -67 117 -67 117 223
128 c123 70 225 134 227 142 2 7 2 53 0 102 l-3 89 -480 0 -479 0 0 -101 c0
-76 4 -104 15 -115 8 -9 15 -11 15 -5 0 7 48 11 143 11 l143 0 147 -256 146
-255 -65 -112 c-36 -61 -67 -113 -69 -115 -3 -4 -365 201 -425 241 -21 13 -29
14 -47 4 -12 -7 -112 -65 -223 -130 -110 -65 -205 -115 -209 -112 -5 2 -39 59
-77 125 l-69 120 -147 0 -148 0 0 250 0 250 43 26 c23 14 98 57 167 97 124 71
125 72 87 75 -33 3 -60 -9 -175 -75 -75 -43 -140 -79 -144 -81 -4 -2 -71 33
-148 78 -122 70 -147 81 -181 78 -40 -3 -38 -4 130 -101 l171 -99 0 -269 c0
-208 3 -269 13 -269 6 -1 77 -1 157 0 l145 0 79 -137 c44 -76 110 -191 148
-255 l69 -118 -67 -115 c-36 -63 -69 -115 -72 -115 -7 0 -366 207 -422 242
-24 16 -30 13 -240 -109 -118 -69 -220 -127 -226 -130 -11 -4 -154 228 -154
249 0 5 -60 8 -150 6 l-150 -3 0 247 0 246 198 115 c108 63 212 122 230 131
17 9 32 21 32 25 0 5 -34 68 -76 140 l-76 131 51 90 c28 49 51 92 51 95 0 3
-10 5 -23 5 -18 0 -33 -18 -72 -85 l-49 -85 -133 0 -133 0 0 85 c0 84 0 85
-25 85 l-25 0 0 -105 0 -105 159 0 159 0 68 -116 c38 -65 63 -119 58 -124 -26
-24 -418 -241 -428 -237 -7 3 -111 62 -230 131 -120 69 -221 126 -226 126 -4
0 -42 -61 -84 -135 l-77 -135 -293 0 -292 0 -68 117 c-37 64 -63 120 -59 124
6 6 229 136 423 248 11 6 16 32 18 110 l3 101 -26 0 c-25 0 -25 0 -25 -90z
m8272 -382 l3 -261 32 -18 c146 -82 391 -224 401 -234 11 -10 1 -35 -58 -139
l-72 -126 72 -126 c39 -69 68 -130 63 -134 -10 -10 -389 -229 -409 -237 -7 -3
-49 15 -91 40 -43 25 -145 84 -227 131 -82 48 -153 85 -157 84 -5 -2 -42 -61
-83 -133 l-74 -130 -136 -3 -136 -3 2 251 3 251 225 130 c124 71 226 133 228
139 2 5 -31 68 -73 140 l-76 131 147 254 148 255 133 0 133 0 2 -262z m-7557
-141 l200 -115 3 -271 c2 -207 5 -271 15 -271 6 -1 78 -1 158 0 l146 1 147
-256 148 -255 -67 -115 c-37 -63 -69 -115 -72 -115 -18 0 -412 237 -409 245
10 28 -62 -1 -189 -75 -77 -45 -176 -103 -219 -127 -93 -53 -75 -64 -169 100
l-61 107 -148 0 -148 0 2 251 3 252 225 129 c124 71 226 133 228 137 1 4 -32
67 -73 139 l-76 131 61 108 c35 59 65 112 67 116 7 11 3 13 228 -116z m3584
55 c64 -38 154 -90 201 -117 47 -27 88 -54 93 -60 4 -5 7 -122 7 -260 0 -137
0 -256 0 -262 0 -9 41 -13 157 -15 l157 -3 41 -70 c23 -38 90 -152 148 -253
l105 -183 -66 -115 c-36 -63 -70 -114 -74 -114 -7 0 -357 199 -430 244 -13 8
-23 8 -35 0 -74 -45 -424 -244 -431 -244 -4 0 -40 55 -79 123 l-71 122 -151 3
-151 3 0 242 c0 133 4 247 8 253 4 6 104 66 222 133 118 68 220 128 227 134 8
9 -8 44 -67 145 l-77 134 66 114 c36 63 70 114 75 114 4 0 61 -31 125 -68z
m-235 -299 c56 -98 65 -119 53 -128 -8 -5 -110 -64 -225 -130 l-211 -120 -1
-262 0 -263 -149 0 -149 0 -69 -121 c-37 -67 -73 -123 -79 -125 -11 -5 -413
222 -427 241 -4 5 -7 127 -6 270 l0 260 -158 5 -158 5 -67 115 c-48 82 -64
117 -55 123 41 27 412 237 419 237 9 0 64 -31 312 -174 81 -47 152 -84 156
-81 4 3 38 58 76 122 37 65 72 124 77 131 7 9 80 12 301 12 l292 0 68 -117z
m5126 -145 l1 -263 220 -125 c122 -69 223 -128 225 -132 4 -6 -57 -116 -124
-227 -20 -33 -20 -34 -2 -60 44 -63 130 -225 123 -231 -4 -5 -100 -61 -211
-125 -173 -100 -207 -116 -225 -108 -12 6 -116 65 -231 132 -115 66 -213 121
-217 121 -3 0 -41 -61 -83 -135 l-77 -135 -135 0 -134 0 0 249 0 249 43 24
c351 202 416 242 420 259 3 10 2 17 -2 14 -4 -2 -40 52 -80 121 l-72 125 122
212 c67 117 133 231 147 255 l24 42 134 0 134 0 0 -262z m-4020 -61 c41 -24
129 -74 195 -112 66 -38 130 -77 143 -86 21 -16 48 -16 62 0 4 6 112 69 209
123 20 11 73 42 119 69 45 27 86 49 90 49 6 0 33 -46 117 -199 l31 -56 147 3
147 3 0 -250 0 -249 -197 -115 c-109 -63 -213 -122 -230 -131 -18 -9 -33 -21
-33 -26 0 -6 12 -29 27 -53 49 -77 123 -208 123 -218 0 -15 -124 -229 -132
-229 -5 0 -101 54 -215 120 l-208 119 -3 271 -2 270 -158 0 -157 0 -147 256
-148 256 18 27 c10 14 40 65 68 113 27 49 51 88 54 88 3 0 39 -19 80 -43z
m1970 -76 l205 -119 3 -263 c1 -145 6 -267 11 -272 5 -5 77 -9 161 -10 l152
-2 65 -113 c38 -65 62 -117 57 -122 -25 -25 -411 -240 -425 -237 -8 2 -113 61
-233 131 -120 69 -221 126 -226 126 -4 0 -18 -19 -30 -42 -12 -24 -46 -85 -76
-135 l-54 -93 -293 0 -293 0 -65 112 c-35 62 -65 115 -67 119 -3 6 395 241
431 255 15 6 17 32 17 270 l0 264 149 0 150 0 72 125 c39 69 75 125 78 125 3
0 98 -54 211 -119z m-4380 -379 l0 -248 -230 -133 c-126 -73 -230 -138 -230
-143 0 -6 34 -69 75 -140 l75 -129 -147 -254 -146 -255 -133 0 -134 0 -2 262
-3 261 -80 47 c-44 26 -144 84 -222 129 -79 46 -143 85 -143 87 0 2 32 60 71
128 l70 124 -17 34 c-9 18 -41 75 -71 126 -31 52 -51 98 -47 102 9 9 295 176
374 218 l45 25 205 -118 c288 -167 260 -153 271 -135 6 8 41 70 80 138 l70
122 135 0 134 0 0 -248z m5301 -153 l209 -121 0 -269 c0 -208 3 -269 13 -269
6 -1 78 -1 158 0 l147 1 147 -256 147 -255 -55 -98 c-31 -53 -62 -106 -70
-116 -14 -19 -23 -15 -213 95 -110 64 -210 122 -224 131 -24 16 -28 14 -115
-38 -201 -122 -357 -206 -365 -198 -4 5 -39 63 -76 129 l-69 120 -147 -3 -148
-3 0 243 c0 134 4 248 8 254 6 8 213 131 410 242 23 13 42 28 42 33 0 5 -34
68 -75 139 l-76 130 67 115 c36 63 68 115 71 115 3 0 99 -54 214 -121z m-4026
-204 c22 -38 53 -91 68 -116 l27 -47 -223 -127 c-122 -71 -223 -129 -225 -131
-2 -1 -3 -119 -2 -263 l1 -261 -150 0 -150 0 -61 -107 c-88 -155 -81 -148
-122 -127 -66 34 -363 207 -377 220 -11 10 -14 61 -13 273 1 166 -2 262 -8
266 -6 4 -79 7 -162 8 l-151 2 -65 113 c-56 96 -63 115 -51 126 22 20 388 228
407 230 14 2 352 -185 424 -235 33 -24 57 -24 65 -1 4 9 19 37 34 62 14 25 45
77 68 117 l41 72 292 -2 292 -2 41 -70z m1475 -174 l0 -249 -67 -40 c-151 -89
-310 -181 -350 -201 -48 -24 -51 -32 -24 -69 30 -44 131 -223 131 -233 0 -6
-44 -85 -97 -177 -53 -92 -111 -192 -128 -222 -17 -30 -39 -67 -49 -82 l-18
-28 -135 0 -134 0 3 265 c2 146 -1 265 -5 265 -8 0 -318 176 -404 229 l-42 26
74 127 74 128 -74 127 -74 127 127 74 c70 41 165 96 211 123 50 30 91 48 100
44 16 -6 232 -130 369 -212 40 -23 78 -43 85 -43 7 0 36 44 66 98 30 53 65
114 78 135 l23 37 130 0 130 0 0 -249z m-3887 -148 c111 -64 205 -121 209
-127 4 -6 8 -129 8 -273 0 -203 3 -263 13 -263 6 -1 77 -1 157 0 l146 1 67
-118 c59 -103 66 -119 52 -129 -8 -6 -103 -62 -211 -124 -182 -105 -197 -112
-222 -100 -33 14 -367 207 -404 232 -14 10 -31 18 -36 18 -6 0 -45 -61 -87
-135 l-77 -135 -293 0 -293 0 -66 113 c-36 63 -66 116 -66 119 0 6 403 242
433 254 16 6 17 28 17 271 l0 264 150 -3 c83 -2 150 1 150 6 0 11 139 246 146
246 3 0 96 -52 207 -117z m5522 -6 l200 -116 3 -270 c2 -207 5 -271 15 -271 6
-1 78 -1 158 0 l147 1 68 -118 c37 -65 103 -178 146 -252 43 -74 78 -138 78
-142 0 -10 -110 -200 -125 -218 -11 -11 -48 7 -216 104 -112 64 -207 122 -211
128 -4 7 -8 8 -8 3 0 -5 -6 -3 -14 3 -10 9 -16 9 -21 1 -5 -8 -11 -8 -21 1
-12 9 -13 9 -9 -3 4 -11 -44 -44 -187 -126 -107 -61 -201 -114 -209 -117 -12
-5 -34 25 -89 119 l-74 126 -148 0 -148 0 0 249 0 248 230 133 c127 72 230
136 230 141 0 5 -34 67 -75 138 l-75 129 67 117 c37 63 72 114 78 111 5 -2
100 -56 210 -119z m-4385 -389 l0 -263 73 -41 c150 -84 362 -207 370 -214 4
-3 -26 -64 -67 -135 l-74 -128 37 -61 c20 -34 54 -91 74 -128 l37 -67 -67 -39
c-38 -22 -131 -76 -209 -121 -77 -44 -145 -81 -151 -81 -6 0 -77 39 -159 86
-219 126 -303 174 -308 174 -2 0 -39 -61 -81 -135 l-77 -135 -134 0 -134 0 0
249 0 249 128 74 c70 41 173 101 230 133 56 32 102 60 102 62 0 2 -34 62 -75
134 -41 71 -75 133 -75 138 0 5 30 61 68 125 37 64 72 124 77 134 6 9 22 38
36 62 14 25 45 78 68 118 l42 72 134 0 135 0 0 -262z m4057 145 c36 -61 62
-116 59 -122 -5 -8 -348 -209 -421 -246 -19 -10 -20 -22 -23 -273 l-2 -261
-148 -3 -147 -3 -70 -122 c-38 -67 -74 -122 -78 -123 -4 0 -101 54 -215 119
l-207 120 -3 270 -2 271 -158 0 -159 0 -64 112 c-35 61 -65 114 -67 118 -3 8
2 12 245 151 94 55 176 99 181 99 9 0 129 -68 356 -202 55 -32 105 -57 110
-54 6 2 45 63 86 135 l75 131 294 -2 293 -3 65 -112z m-1297 -660 c0 -137 0
-256 0 -265 0 -9 14 -24 32 -33 18 -8 119 -66 224 -127 l193 -111 -26 -46
c-15 -25 -48 -83 -75 -129 l-49 -84 75 -128 75 -129 -152 -87 c-84 -48 -177
-102 -207 -121 -31 -18 -61 -33 -69 -33 -13 0 -111 55 -356 198 -127 74 -103
85 -203 -90 l-67 -117 -137 -1 -138 0 0 243 c0 133 4 247 8 253 4 5 107 68
230 138 122 70 222 132 222 136 0 4 -34 67 -75 138 l-75 131 132 228 c72 125
139 240 147 255 l16 28 138 0 138 0 -1 -247z m3670 -3 l0 -249 -72 -43 c-194
-113 -356 -205 -371 -211 -9 -3 -17 -11 -17 -16 0 -5 34 -68 76 -140 l76 -131
-61 -107 c-34 -60 -99 -173 -145 -253 l-83 -145 -136 -3 -137 -3 -2 262 -3
262 -217 126 c-119 69 -219 129 -222 132 -5 5 110 215 134 244 5 6 -22 64 -66
138 -41 71 -74 130 -74 132 0 2 89 54 198 116 108 62 204 117 212 122 12 7 68
-21 220 -108 113 -65 214 -124 225 -131 11 -8 25 -14 31 -14 6 0 47 61 90 135
l78 135 133 0 133 0 0 -250z m-7560 -153 c96 -55 183 -107 193 -115 15 -14 17
-40 17 -279 0 -203 3 -263 13 -263 6 -1 77 -1 157 0 l145 0 79 -137 c44 -76
110 -191 148 -256 l69 -118 -64 -111 c-35 -62 -68 -113 -73 -115 -9 -3 -372
200 -423 237 -23 16 -27 15 -245 -112 -121 -70 -225 -127 -231 -125 -11 4
-144 226 -145 242 0 6 -55 9 -150 7 l-150 -3 0 249 0 249 148 85 c81 47 184
107 230 133 45 26 82 51 82 55 0 4 -24 47 -53 96 -29 49 -64 108 -77 131 l-23
42 67 115 c63 109 69 115 89 105 12 -7 101 -57 197 -112z m-326 -244 c54 -94
65 -119 54 -128 -10 -10 -187 -112 -403 -235 l-30 -17 -3 -261 -2 -262 -148 0
-147 0 -69 -120 c-38 -66 -73 -123 -78 -126 -9 -6 -72 28 -310 168 l-118 69 0
269 0 270 -159 0 -158 0 -67 115 c-36 63 -66 116 -66 119 0 2 19 15 43 28 23
13 118 68 212 123 l170 98 45 -25 c25 -14 128 -73 228 -132 101 -58 188 -106
192 -106 5 0 43 61 85 135 l77 135 292 0 292 0 68 -117z m3522 107 l90 0 66
-114 66 -115 -192 -109 c-105 -61 -206 -118 -225 -129 l-34 -18 2 -262 2 -262
-152 -3 -152 -3 -68 -120 c-38 -66 -73 -121 -79 -123 -5 -2 -80 38 -167 88
-87 51 -178 104 -203 118 -25 14 -48 30 -53 36 -4 6 -7 127 -6 269 0 142 -1
261 -4 263 -3 3 -74 6 -158 7 l-154 2 -66 115 c-37 63 -66 116 -66 116 9 7
395 228 412 236 18 8 46 -4 181 -83 87 -50 187 -109 222 -130 35 -22 69 -39
75 -39 7 0 39 48 72 107 33 58 68 119 78 136 l19 30 201 -6 c111 -4 243 -7
293 -7z m-2261 -399 c216 -127 220 -129 245 -113 46 30 414 242 420 242 3 0
37 -55 77 -122 l71 -123 151 -3 151 -3 -2 -251 -3 -251 -225 -129 c-124 -71
-226 -134 -228 -141 -1 -7 31 -70 73 -140 l74 -129 -65 -114 c-37 -65 -72
-114 -79 -112 -7 2 -103 55 -214 118 l-201 115 -2 270 -3 270 -159 5 -160 5
-29 50 c-108 183 -257 447 -257 456 0 17 125 228 135 228 6 0 109 -58 230
-128z m3665 4 c143 -83 199 -121 204 -138 3 -12 5 -133 3 -270 -1 -136 1 -247
6 -247 4 0 8 -100 9 -222 l3 -223 2 223 3 222 144 0 144 0 60 -102 c33 -57 72
-125 87 -153 16 -27 55 -97 88 -154 44 -76 57 -108 51 -120 -31 -64 -121 -211
-128 -211 -16 0 -416 232 -416 242 0 5 -5 6 -10 3 -6 -3 -13 1 -16 9 -5 14 -8
13 -23 -3 -17 -20 -413 -251 -430 -251 -5 0 -42 56 -81 125 l-72 125 -149 0
-149 0 0 244 0 245 28 19 c15 10 116 70 226 133 109 63 200 119 203 125 2 7
-30 70 -71 142 l-76 130 67 116 c46 80 72 115 81 111 8 -3 103 -57 212 -120z
m1830 4 l210 -121 0 -269 c0 -208 3 -269 13 -269 6 -1 78 -1 158 0 l146 1 67
-117 c53 -94 64 -120 54 -130 -21 -19 -399 -234 -412 -234 -11 0 -253 136
-395 221 -34 22 -67 39 -71 39 -4 0 -18 -19 -30 -42 -12 -24 -46 -85 -76 -135
l-55 -93 -293 0 -293 0 -67 115 c-36 63 -66 117 -66 119 0 2 101 61 225 132
l225 129 0 263 0 262 149 0 150 0 32 58 c62 110 111 192 116 192 2 0 98 -54
213 -121z m1130 -391 l0 -263 48 -25 c80 -44 386 -221 396 -230 5 -5 -22 -63
-63 -133 -39 -69 -71 -128 -71 -130 0 -3 32 -60 70 -126 39 -66 70 -124 70
-129 0 -5 -11 -14 -23 -19 -13 -6 -106 -59 -207 -117 -100 -58 -188 -106 -196
-106 -7 0 -114 59 -238 130 -205 118 -246 137 -246 111 0 -5 -31 -62 -69 -127
l-69 -119 -136 -3 -136 -3 0 249 0 248 230 134 c127 73 230 138 230 144 0 7
-4 16 -9 22 -11 11 -141 234 -141 242 0 2 66 119 146 258 l147 254 133 0 134
0 0 -262z m-3890 -137 l205 -118 5 -274 5 -274 160 -3 160 -2 76 -133 c42 -72
106 -183 142 -245 37 -62 67 -118 67 -124 0 -6 -29 -62 -65 -124 l-65 -112
-225 130 c-203 117 -226 128 -247 117 -13 -6 -111 -63 -219 -125 -108 -63
-201 -114 -206 -114 -6 0 -43 56 -83 125 l-72 125 -149 0 -149 0 0 244 c0 183
3 246 13 254 6 5 111 67 232 137 121 70 221 128 222 129 1 1 -33 63 -76 137
l-78 137 66 116 c36 64 68 116 71 116 3 0 97 -54 210 -119z m-4380 -392 c-1
-144 0 -262 2 -264 2 -1 100 -58 218 -125 118 -68 219 -127 224 -131 5 -4 -25
-66 -67 -137 -41 -72 -71 -134 -67 -139 12 -12 140 -234 140 -242 -1 -9 -398
-235 -420 -239 -10 -2 -96 42 -192 97 -255 147 -260 150 -254 160 4 5 -3 7
-13 4 -11 -3 -31 -26 -44 -52 -14 -25 -47 -84 -74 -131 l-49 -85 -137 -3 -137
-3 0 244 c0 220 2 245 18 259 9 8 109 68 222 133 113 64 209 121 215 126 6 6
5 17 -4 32 -8 12 -43 72 -79 132 l-64 110 22 40 c13 22 79 138 148 258 l125
217 134 0 134 0 -1 -261z m1840 -1 l0 -263 38 -21 c190 -110 407 -236 410
-239 2 -2 -30 -60 -71 -130 l-74 -127 72 -126 c41 -70 71 -130 69 -134 -3 -4
-44 -29 -92 -56 -48 -27 -138 -79 -201 -116 -62 -36 -120 -66 -129 -66 -13 0
-184 95 -378 211 -45 27 -84 49 -87 49 -2 0 -39 -61 -81 -135 l-77 -135 -135
0 -134 0 0 249 0 248 230 133 c211 121 247 148 221 165 -22 13 -142 238 -136
253 19 52 138 241 147 236 7 -4 8 -2 4 4 -4 6 25 68 65 137 l71 125 134 0 134
0 0 -262z m1162 126 c112 -64 213 -123 225 -131 20 -14 24 -9 99 121 l79 136
295 0 296 0 66 -114 66 -115 -222 -127 c-121 -70 -222 -129 -224 -130 -2 -1
-4 -118 -5 -261 l-2 -258 -149 -5 -148 -5 -71 -123 c-39 -67 -77 -121 -83
-120 -7 2 -103 55 -213 118 l-200 115 -3 270 -3 270 -160 3 -160 3 -67 117
c-59 103 -65 118 -50 126 9 5 105 61 212 123 107 62 200 111 207 108 7 -2 103
-57 215 -121z m4121 -258 c108 -62 203 -119 212 -126 13 -11 15 -52 15 -276 0
-204 3 -264 13 -264 6 -1 75 -1 153 0 123 1 142 -1 156 -17 24 -28 289 -494
286 -502 -2 -4 -32 -58 -67 -119 l-64 -112 -31 19 c-17 10 -119 69 -226 131
-187 109 -195 112 -220 98 -14 -8 -101 -59 -195 -113 -93 -53 -184 -106 -201
-116 l-30 -18 -75 129 -74 130 -147 0 -148 0 0 243 c0 220 2 245 18 259 9 8
109 68 222 132 113 65 209 122 215 127 6 6 5 16 -3 29 -6 10 -41 70 -77 133
l-66 113 68 117 c37 64 68 117 68 117 1 0 90 -51 198 -114z m-4363 -399 l0
-263 138 -79 c75 -44 176 -102 224 -130 l87 -51 -74 -129 c-41 -71 -72 -131
-71 -134 2 -3 35 -61 74 -128 l71 -122 -92 -54 c-51 -29 -144 -84 -207 -120
-63 -37 -121 -67 -130 -67 -8 0 -116 59 -239 130 -123 72 -225 130 -226 130
-2 0 -37 -61 -79 -135 l-77 -135 -140 0 -139 0 0 238 c0 130 4 242 8 248 4 7
45 34 92 61 47 27 149 87 228 132 78 46 142 85 142 87 0 2 -34 62 -76 135 -43
74 -73 137 -70 146 3 8 34 63 68 121 33 59 72 127 86 152 13 25 49 87 79 138
l54 92 134 0 135 0 0 -263z m4054 148 c36 -63 66 -118 66 -122 0 -4 -35 -28
-78 -52 -42 -24 -143 -82 -224 -129 l-148 -85 0 -259 0 -258 -147 0 -148 0
-70 -125 c-38 -69 -74 -125 -80 -125 -10 0 -99 50 -307 172 l-118 69 0 269 0
270 -158 0 -158 0 -67 116 c-37 64 -66 118 -65 119 2 2 98 58 213 125 l210
122 45 -25 c25 -14 128 -73 229 -131 102 -59 189 -105 195 -103 6 3 31 40 55
83 25 44 59 103 77 131 l34 53 289 0 289 0 66 -115z m-3137 -665 c1 -135 3
-252 3 -261 0 -11 75 -60 223 -144 122 -70 223 -129 225 -130 1 -1 -31 -60
-72 -130 -42 -71 -74 -131 -72 -134 2 -3 35 -61 74 -128 l71 -123 -22 -14
c-12 -8 -98 -58 -192 -111 -93 -54 -174 -101 -179 -106 -22 -20 -61 -4 -222
89 -93 54 -194 113 -226 130 l-56 32 -78 -135 -78 -135 -138 0 -138 0 0 238
c0 176 3 242 13 254 6 8 112 72 234 143 210 120 222 129 211 149 -6 11 -41 73
-78 137 l-67 115 95 165 c52 90 119 206 149 257 l54 93 132 -3 132 -3 2 -245z
m1838 -16 l0 -261 120 -68 c222 -126 325 -188 325 -196 0 -4 -33 -63 -73 -131
l-72 -123 55 -92 c70 -116 94 -162 89 -167 -19 -17 -412 -236 -423 -236 -8 0
-114 58 -237 129 -193 112 -255 140 -246 113 1 -4 -30 -62 -68 -130 l-70 -122
-137 0 -138 0 0 245 0 245 38 24 c58 37 385 224 405 231 9 4 17 13 17 20 0 8
-29 63 -64 124 -36 61 -70 119 -75 129 -11 20 -4 32 221 415 l69 118 132 -3
132 -3 0 -261z m-5666 -173 l175 -100 55 31 c31 17 108 61 171 98 63 37 140
81 171 98 l56 32 74 -130 74 -130 148 0 147 0 0 -245 c0 -243 0 -245 -22 -258
-56 -35 -339 -198 -386 -222 -29 -15 -52 -33 -52 -40 0 -7 34 -70 75 -140 l75
-127 -67 -119 -67 -118 -31 18 c-16 10 -106 62 -200 116 -93 54 -176 102 -182
107 -10 8 -13 76 -13 279 l0 269 -159 0 -159 0 -48 83 c-26 45 -82 141 -124
212 -42 72 -86 148 -99 170 l-22 40 67 118 67 117 51 -29 c28 -17 129 -75 225
-130z m1766 42 c66 -39 143 -83 170 -100 l50 -29 3 -272 2 -272 159 0 158 0
63 -109 c34 -60 63 -113 62 -118 0 -11 -401 -243 -420 -243 -7 0 -71 33 -140
74 -235 136 -323 186 -326 186 -2 0 -39 -61 -81 -135 l-77 -135 -296 2 -297 3
-62 105 c-34 58 -62 110 -62 116 -1 6 100 69 224 140 l225 129 0 258 0 257
149 0 c133 0 150 2 155 18 4 9 36 68 72 129 l66 113 41 -24 c23 -13 96 -55
162 -93z m4815 -398 l1 -260 224 -129 c124 -71 225 -133 225 -137 0 -5 -31
-62 -70 -128 -38 -66 -70 -123 -70 -126 0 -3 32 -60 70 -126 39 -66 70 -123
70 -127 0 -11 -405 -242 -424 -242 -9 0 -116 58 -239 129 -122 71 -225 127
-228 125 -4 -2 -40 -62 -80 -134 l-74 -130 -138 0 -137 0 2 247 3 248 219 127
c120 71 222 128 227 128 19 0 6 33 -52 132 -101 171 -98 139 -23 270 81 138
94 161 152 263 80 142 60 130 211 130 l131 0 0 -260z m1840 2 c0 -275 -1 -271
51 -294 24 -10 389 -220 398 -229 2 -2 -30 -62 -71 -133 -42 -71 -72 -133 -68
-138 14 -15 143 -244 139 -247 -26 -21 -409 -233 -424 -233 -11 -1 -119 56
-240 127 -167 97 -223 125 -232 117 -6 -7 -43 -66 -81 -132 l-69 -120 -137 -3
-136 -3 0 245 0 245 28 19 c25 17 77 48 336 196 49 28 90 56 93 61 2 6 -29 65
-68 130 -39 66 -74 125 -76 132 -4 9 60 126 137 253 5 8 41 70 79 137 39 67
78 123 88 125 9 2 69 3 135 3 l118 0 0 -258z m-9528 -66 c257 -150 355 -204
370 -203 9 0 30 9 45 20 25 18 326 192 380 221 21 10 26 4 95 -119 l73 -129
148 -1 147 0 0 -244 c0 -183 -3 -246 -12 -254 -15 -11 -329 -193 -400 -232
-49 -26 -57 -42 -35 -69 16 -19 137 -228 137 -236 0 -13 -132 -235 -138 -231
-139 79 -400 231 -409 238 -10 8 -13 75 -13 274 0 168 -4 265 -10 269 -6 4
-78 7 -162 8 l-151 2 -68 119 c-37 66 -66 123 -63 128 3 4 1 8 -5 8 -5 0 -41
56 -81 124 l-71 124 57 99 c64 111 78 133 81 133 1 0 40 -22 85 -49z m3818
-83 l195 -113 3 -273 2 -272 158 0 158 0 36 -62 c20 -35 84 -146 143 -248 59
-102 108 -190 108 -195 0 -8 -105 -198 -128 -233 -2 -1 -104 56 -228 128
l-226 131 -193 -112 c-106 -61 -207 -120 -225 -131 l-31 -19 -74 128 c-40 70
-72 130 -71 133 1 3 -66 4 -148 2 l-149 -3 0 248 c0 226 2 249 18 259 9 6 109
64 222 129 113 65 208 120 212 124 4 3 -26 65 -67 136 -41 72 -75 135 -75 140
0 6 30 61 66 123 55 94 68 110 82 102 10 -5 105 -60 212 -122z"/>
<path d="M3965 5300 c-3 -6 1 -7 9 -4 18 7 21 14 7 14 -6 0 -13 -4 -16 -10z"/>
<path d="M4885 3710 c-3 -6 1 -7 9 -4 18 7 21 14 7 14 -6 0 -13 -4 -16 -10z"/>
<path d="M1683 2805 c0 -27 2 -38 4 -22 2 15 2 37 0 50 -2 12 -4 0 -4 -28z"/>
<path d="M7194 1570 c0 -140 2 -198 3 -127 2 70 2 184 0 255 -1 70 -3 12 -3
-128z"/>
<path d="M7192 1265 c0 -16 2 -22 5 -12 2 9 2 23 0 30 -3 6 -5 -1 -5 -18z"/>
<path d="M7194 1020 c0 -80 2 -112 3 -72 2 39 2 105 0 145 -1 39 -3 7 -3 -73z"/>
<path d="M2135 1590 c3 -5 8 -10 11 -10 2 0 4 5 4 10 0 6 -5 10 -11 10 -5 0
-7 -4 -4 -10z"/>
<path d="M3055 1590 c-3 -5 -1 -10 4 -10 6 0 11 5 11 10 0 6 -2 10 -4 10 -3 0
-8 -4 -11 -10z"/>
<path d="M8111 1274 c0 -11 3 -14 6 -6 3 7 2 16 -1 19 -3 4 -6 -2 -5 -13z"/>
<path d="M8112 790 c0 -14 2 -19 5 -12 2 6 2 18 0 25 -3 6 -5 1 -5 -13z"/>
<path d="M9954 985 c0 -88 2 -123 3 -77 2 46 2 118 0 160 -1 42 -3 5 -3 -83z"/>
<path d="M9636 807 c3 -10 9 -15 12 -12 3 3 0 11 -7 18 -10 9 -11 8 -5 -6z"/>
<path d="M9951 794 c0 -11 3 -14 6 -6 3 7 2 16 -1 19 -3 4 -6 -2 -5 -13z"/>
<path d="M9954 555 c0 -116 2 -161 3 -102 2 59 2 154 0 210 -1 56 -3 8 -3
-108z"/>
<path d="M764 1000 c0 -91 2 -128 3 -82 2 45 2 119 0 165 -1 45 -3 8 -3 -83z"/>
<path d="M1070 796 c0 -8 4 -17 9 -20 5 -4 7 3 4 14 -6 23 -13 26 -13 6z"/>
<path d="M10556 7683 c-6 -14 -5 -15 5 -6 7 7 10 15 7 18 -3 3 -9 -2 -12 -12z"/>
<path d="M6270 7159 c0 -5 5 -7 10 -4 6 3 10 8 10 11 0 2 -4 4 -10 4 -5 0 -10
-5 -10 -11z"/>
<path d="M764 4790 c0 -118 2 -167 3 -107 2 59 2 155 0 215 -1 59 -3 10 -3
-108z"/>
<path d="M3044 19 c-9 -15 1 -21 32 -17 l29 3 -27 12 c-18 8 -29 9 -34 2z"/>
<path d="M6725 19 c-10 -15 0 -21 27 -17 l23 3 -22 13 c-15 8 -24 9 -28 1z"/>
<path d="M10397 23 c-15 -14 -5 -23 25 -23 30 0 31 1 12 15 -22 16 -28 18 -37
8z"/>
</g>
</svg>
