<?xml version="1.0" standalone="no"?>
<!DOCTYPE svg PUBLIC "-//W3C//DTD SVG 20010904//EN"
 "http://www.w3.org/TR/2001/REC-SVG-20010904/DTD/svg10.dtd">
<svg version="1.0" xmlns="http://www.w3.org/2000/svg"
 width="600px" height="600px" viewBox="0 0 1024.000000 1024.000000"
 preserveAspectRatio="xMidYMid meet">

<g transform="translate(0.000000,1024.000000) scale(0.100000,-0.100000)"
fill="#B18FCF" stroke="none">
<path d="M0 5120 l0 -5120 5120 0 5120 0 0 5120 0 5120 -5120 0 -5120 0 0
-5120z m5027 3264 c96 -18 189 -15 281 10 28 8 52 12 52 10 0 -2 -13 -30 -30
-61 -30 -59 -60 -158 -60 -200 0 -17 6 -23 23 -23 32 0 175 36 221 55 21 9 40
15 42 13 2 -2 -3 -26 -11 -53 -24 -78 -19 -238 11 -334 6 -21 5 -23 -12 -16
-64 28 -158 55 -213 61 l-64 7 7 -49 c4 -27 20 -86 35 -131 l27 -82 -41 -6
c-55 -9 -94 -24 -133 -53 l-33 -24 -22 20 c-25 23 -117 62 -147 62 -24 0 -25
-7 4 92 13 46 26 103 29 127 l5 44 -56 -6 c-66 -7 -140 -27 -196 -51 -37 -17
-38 -17 -32 1 28 70 34 249 11 333 -8 30 -15 58 -15 62 0 4 21 -2 48 -13 48
-21 193 -59 225 -59 12 0 17 8 17 28 0 45 -29 142 -60 205 -20 40 -25 57 -15
53 8 -3 54 -13 102 -22z m-425 -824 c173 -43 321 -126 455 -253 l72 -69 86 77
c154 137 301 217 457 249 141 29 319 15 432 -34 70 -30 168 -102 212 -156 l37
-45 -95 -97 c-52 -53 -115 -124 -140 -157 -110 -146 -220 -338 -248 -432 l-13
-43 -108 0 -109 0 24 63 c58 150 112 250 198 364 61 82 169 194 221 230 20 14
37 29 37 33 0 5 -33 22 -72 38 -64 26 -99 36 -206 58 -18 4 -38 -10 -94 -63
-183 -176 -317 -411 -388 -681 l-11 -42 -465 2 -465 3 -25 62 c-74 184 -209
385 -372 554 l-112 117 71 66 c78 72 196 138 289 161 85 20 242 18 332 -5z
m1127 -1149 c66 -6 77 -10 102 -39 47 -53 31 -124 -35 -156 -32 -15 -97 -16
-681 -14 l-647 3 -29 33 c-34 37 -38 79 -12 123 35 60 23 59 653 58 316 0 608
-4 649 -8z m275 -395 c38 -16 71 -64 80 -119 9 -50 -20 -116 -70 -153 l-37
-29 -847 0 -847 0 -37 29 c-91 69 -88 209 6 266 32 19 52 20 876 20 695 0 848
-2 876 -14z m-1224 -444 c116 -64 296 -190 417 -291 170 -142 163 -134 163
-192 0 -27 7 -116 15 -197 43 -417 152 -807 296 -1062 27 -48 49 -90 49 -94 0
-3 -315 -6 -700 -6 l-700 0 21 42 c107 210 207 558 268 928 15 92 39 343 47
490 3 69 8 136 10 150 1 14 3 83 3 153 1 149 -6 143 111 79z m-744 -1685 c25
-30 31 -75 14 -108 -25 -45 -51 -49 -359 -49 -159 0 -301 4 -314 9 -81 31 -89
140 -13 171 11 5 162 8 334 7 l314 -2 24 -28z m2895 -5 c34 -38 36 -56 9 -99
-30 -50 -65 -55 -380 -51 l-280 3 -25 25 c-38 39 -42 80 -11 118 15 17 39 33
54 35 15 2 157 4 315 3 l289 -1 29 -33z m-3174 -346 c38 -32 39 -95 3 -131
l-25 -25 -305 -6 c-326 -8 -365 -4 -395 39 -25 36 -19 85 14 118 l29 29 326 0
325 0 28 -24z m2420 -6 c119 -60 171 -179 127 -290 -9 -23 -20 -40 -24 -38 -4
2 -27 27 -51 57 -102 125 -164 144 -436 135 l-192 -7 44 -34 c25 -18 63 -60
85 -93 l40 -58 -588 -4 c-323 -2 -724 -1 -892 2 l-305 5 -18 35 c-27 52 -19
145 16 198 31 48 83 89 134 108 31 11 226 13 1019 14 l981 0 60 -30z m1032 4
c25 -20 31 -34 31 -64 0 -22 -8 -47 -19 -61 -17 -22 -30 -25 -123 -30 -138 -9
-450 -10 -516 -3 -64 8 -102 41 -102 88 0 37 23 74 54 86 11 5 161 9 333 9
l311 1 31 -26z m-3864 -369 c19 -18 25 -35 25 -69 0 -37 -5 -48 -32 -71 -31
-26 -31 -26 -180 -23 l-150 3 -24 28 c-41 48 -25 125 30 147 11 5 85 9 164 9
139 1 144 0 167 -24z m3926 -4 c21 -22 29 -39 29 -66 0 -27 -8 -44 -29 -66
l-29 -29 -150 0 c-147 0 -151 1 -181 26 -43 36 -44 93 -2 135 l29 29 152 0
152 0 29 -29z m-817 -151 c96 -24 159 -58 222 -118 88 -85 144 -192 144 -279
l0 -33 -110 0 -109 0 -25 53 c-49 103 -136 181 -243 218 -49 17 -84 19 -287
19 l-231 0 44 -20 c98 -45 238 -166 276 -240 l14 -27 -999 -7 c-936 -6 -1696
-1 -1705 13 -9 15 18 112 50 178 41 88 99 147 193 196 130 69 56 65 1438 66
1215 1 1253 0 1328 -19z m351 -635 c36 -35 34 -88 -4 -126 l-29 -29 -1640 0
-1639 0 -27 25 c-21 20 -26 33 -26 74 0 89 -169 81 1693 81 l1648 0 24 -25z
m-1818 -357 c29 -32 37 -65 22 -99 -24 -59 -22 -59 -543 -59 -510 0 -515 0
-542 51 -21 42 -17 77 12 104 l27 25 502 0 502 0 20 -22z m1351 2 c46 -43 41
-109 -11 -140 -31 -20 -49 -20 -525 -18 l-494 3 -29 33 c-37 41 -37 75 0 113
l29 29 504 0 c493 0 505 0 526 -20z"/>
</g>
</svg>
